:SAMPLES-PER-SECOND 30
:FULLY-SPECIFIED
:DEGREES
99
root  -28.9522 39.4412 -0.0602365 7.31653 -80.9358 -2.05884
RightUpLeg  -28.5012 -18.0696 -3.23422
RightLeg  21.2047 -4.13631 -1.98703
RightFoot  3.27016 -0.158948 1.37593
RightToes  0.00048216 0.542163 -0.142577
Spine  37.5443 0.892771 21.3998
Spine1  10.5683 12.6237 -13.6594
HEad  -21.9741 -28.1204 9.66536
LeftShoulder1  9.23869 -14.8998 -43.6851
LeftArm  -3.1917 13.5762 -29.9468
LeftForeArm  33.1502 -42.2087 -7.9555
LeftHand  -0.25398 0.0180481 5.50724
RightShoulder  4.75292 11.564 25.4371
RightArm  -40.1416 50.9463 -0.543559
RightForeArm  -11.6688 1.92486 5.09071
RightHand  -3.93429 13.5405 -24.2499
LeftUpLeg  -27.5353 8.85157 -6.04375
LeftLeg  10.4888 0.45667 -3.94559
LeftFoot  11.836 -2.43123 11.4602
LeftToes  1.06247e-005 4.65855e-005 -8.18501e-006
100
root  -29.2728 39.517 -0.304434 7.6682 -79.7811 -1.18633
RightUpLeg  -29.3742 -18.7407 -2.70528
RightLeg  21.9749 -4.47102 -2.20223
RightFoot  3.42314 -0.066279 0.690198
RightToes  0.00048216 0.542163 -0.142577
Spine  38.9238 0.604311 22.5657
Spine1  10.4679 13.2524 -14.2478
HEad  -23.3661 -29.4538 10.035
LeftShoulder1  9.35852 -15.0537 -43.8954
LeftArm  -3.11973 13.5191 -29.2798
LeftForeArm  33.3892 -41.3743 -7.67956
LeftHand  -0.25398 0.0180481 5.50724
RightShoulder  4.54272 11.5102 24.0887
RightArm  -44.3515 51.1157 -4.8228
RightForeArm  -12.5957 0.628234 4.37369
RightHand  -4.16135 14.5411 -24.3534
LeftUpLeg  -28.3037 7.72624 -5.8225
LeftLeg  10.2429 0.275337 -3.90603
LeftFoot  11.9816 -2.38902 11.18
LeftToes  1.06247e-005 4.65855e-005 -8.18501e-006
101
root  -29.5851 39.598 -0.551329 7.91595 -78.9434 -0.0961456
RightUpLeg  -30.227 -20.5812 -1.79682
RightLeg  21.7094 -3.9419 -1.9479
RightFoot  3.28534 -0.084298 0.83274
RightToes  0.00048216 0.542163 -0.142577
Spine  40.0072 0.446567 23.4113
Spine1  10.4453 13.873 -14.754
HEad  -25.006 -30.6217 10.6434
LeftShoulder1  9.47419 -15.1722 -44.1692
LeftArm  -3.13103 13.8602 -28.6017
LeftForeArm  33.3006 -40.3382 -7.37149
LeftHand  -0.25398 0.0180481 5.50724
RightShoulder  4.36958 11.481 22.9324
RightArm  -47.9784 51.0879 -8.36467
RightForeArm  -13.3734 -0.329629 3.71622
RightHand  -4.4489 15.7887 -24.5003
LeftUpLeg  -29.0434 6.53889 -5.37258
LeftLeg  9.75398 0.629685 -4.02367
LeftFoot  12.0588 -2.33013 10.8586
LeftToes  1.06247e-005 4.65855e-005 -8.18501e-006
102
root  -29.9009 39.6949 -0.795745 8.26851 -78.3464 0.939835
RightUpLeg  -31.4506 -22.1938 -0.684679
RightLeg  21.2926 -3.03443 -1.52276
RightFoot  3.65641 0.0359392 -0.080319
RightToes  0.00048216 0.542163 -0.142577
Spine  40.6946 0.568474 23.9687
Spine1  10.4426 14.3877 -14.7991
HEad  -26.8138 -31.6067 11.5938
LeftShoulder1  9.62281 -15.2812 -44.6227
LeftArm  -2.99167 14.4594 -27.8054
LeftForeArm  33.4443 -39.1006 -7.00103
LeftHand  -0.25398 0.0180481 5.50724
RightShoulder  4.25269 11.5038 22.0596
RightArm  -50.5315 50.7766 -10.9309
RightForeArm  -13.9552 -0.41842 3.31099
RightHand  -4.55838 16.6382 -24.1541
LeftUpLeg  -29.5657 5.39191 -4.7305
LeftLeg  8.77043 1.24485 -4.29968
LeftFoot  12.2604 -2.27925 10.5169
LeftToes  1.06247e-005 4.65855e-005 -8.18501e-006
103
root  -30.2125 39.7909 -1.03896 8.67348 -77.9104 1.80882
RightUpLeg  -32.472 -22.432 0.0950947
RightLeg  21.2689 -3.1062 -1.55316
RightFoot  3.75728 0.202692 -1.33822
RightToes  0.00048216 0.542163 -0.142577
Spine  41.1376 0.84118 24.2364
Spine1  10.415 14.7901 -14.5398
HEad  -28.2895 -32.25 12.2231
LeftShoulder1  9.77532 -15.3497 -45.1893
LeftArm  -2.73832 15.1009 -26.9983
LeftForeArm  33.8163 -37.735 -6.59502
LeftHand  -0.25398 0.0180481 5.50724
RightShoulder  4.17952 11.5915 21.368
RightArm  -51.9277 50.4162 -12.5337
RightForeArm  -15.0538 0.185541 3.23783
RightHand  -4.91059 17.609 -24.862
LeftUpLeg  -29.9449 4.28643 -3.96415
LeftLeg  7.66155 1.97774 -4.60284
LeftFoot  12.6145 -2.23585 10.1445
LeftToes  1.06247e-005 4.65855e-005 -8.18501e-006
104
root  -30.5157 39.8816 -1.26209 9.03139 -77.5904 2.50667
RightUpLeg  -32.8308 -22.0446 0.492995
RightLeg  20.9474 -3.83067 -1.81006
RightFoot  3.29971 0.231931 -1.62685
RightToes  0.00048216 0.542163 -0.142577
Spine  41.4024 0.987079 24.3477
Spine1  10.3567 15.0474 -14.4438
HEad  -29.2085 -32.4278 12.2744
LeftShoulder1  9.87049 -15.3779 -45.5757
LeftArm  -2.56806 15.7302 -26.4215
LeftForeArm  34.0531 -36.352 -6.20777
LeftHand  -0.25398 0.0180481 5.50724
RightShoulder  4.11175 11.6599 20.7563
RightArm  -52.501 50.3517 -12.9232
RightForeArm  -17.1827 1.16604 3.378
RightHand  -5.94085 19.3545 -27.7552
LeftUpLeg  -30.1963 3.16504 -3.15247
LeftLeg  6.70643 2.87087 -4.78576
LeftFoot  12.8396 -2.15938 9.6867
LeftToes  1.06247e-005 4.65855e-005 -8.18501e-006
105
root  -30.8164 39.9816 -1.44588 9.16711 -77.39 3.11337
RightUpLeg  -32.7465 -22.0739 0.778383
RightLeg  20.1794 -4.1088 -1.71058
RightFoot  2.95891 0.211596 -1.52486
RightToes  0.00048216 0.542163 -0.142577
Spine  41.393 0.956535 24.3634
Spine1  10.3035 15.0719 -14.5711
HEad  -29.7074 -32.1104 12.1992
LeftShoulder1  9.87696 -15.3926 -45.5698
LeftArm  -2.63946 16.4569 -26.2494
LeftForeArm  34.04 -35.0521 -5.87025
LeftHand  -0.25398 0.0180481 5.50724
RightShoulder  4.05678 11.5548 20.5696
RightArm  -52.5553 50.669 -11.7285
RightForeArm  -19.2989 3.07385 3.65888
RightHand  -7.19422 21.2494 -31.0252
LeftUpLeg  -30.0814 2.07975 -2.38325
LeftLeg  5.73822 3.85498 -4.84784
LeftFoot  12.8794 -2.05137 9.1698
LeftToes  1.06247e-005 4.65855e-005 -8.18501e-006
